<svg viewBox="0 0 100 100" xmlns="http://www.w3.org/2000/svg" fill-rule="evenodd" clip-rule="evenodd" stroke-linejoin="round" stroke-miterlimit="1.4" class="CommentOnOffButton-iconShow"><path d="M24 80H8a8 8 0 0 1-8-8V8a8 8 0 0 1 8-8h84a8 8 0 0 1 8 8v64a8 8 0 0 1-8 8H52.5l-21 18.8a4.8 4.8 0 0 1-4.8.9A4 4 0 0 1 24 96V80zm26-46.7l10.5-10.5a4 4 0 0 1 5.7 0l1 1a4 4 0 0 1 0 5.7L56.7 40l10.5 10.5a4 4 0 0 1 0 5.7l-1 1a4 4 0 0 1-5.7 0L50 46.7 39.5 57.2a4 4 0 0 1-5.7 0l-1-1a4 4 0 0 1 0-5.7L43.3 40 32.8 29.5a4 4 0 0 1 0-5.7l1-1a4 4 0 0 1 5.7 0L50 33.3z"></path></svg>
