<svg viewBox="0 0 20 21" xmlns="http://www.w3.org/2000/svg" xmlns:xlink="http://www.w3.org/1999/xlink"><defs><path id="a" d="M0 20.602h19.883V0H0z"></path></defs><g fill="none" fill-rule="evenodd"><mask id="b" fill="#fff"><use xlink:href="#a"></use></mask><path d="M0 6.48v10.382c0 .957.786 1.732 1.752 1.732H3.82l1.128 1.81c.112.163.244.198.367.198s.266-.053.358-.198l1.13-1.81h6.053l1.13 1.81a.411.411 0 0 0 .366.198.422.422 0 0 0 .36-.198l1.13-1.81h2.29c.97 0 1.75-.775 1.75-1.732V6.48c0-.955-.78-1.73-1.75-1.73h-6.628l3.85-3.807L14.4 0 9.925 4.42 5.468.018l-.96.947 3.83 3.786H1.752A1.74 1.74 0 0 0 0 6.48" fill="#fff" mask="url(#b)"></path></g></svg>
