<svg viewBox="0 0 100 100" xmlns="http://www.w3.org/2000/svg" fill-rule="evenodd" clip-rule="evenodd" stroke-linejoin="round" stroke-miterlimit="1.4" class="MuteVideoButton-icon"><path d="M24.1 24L45.2 1.3a3.7 3.7 0 0 1 4.4-1C51 1.2 52 2.8 52 4.6v91c0 1.8-1 3.4-2.4 4.1-1.5.7-3.2.4-4.4-.9L24.2 76H8a8 8 0 0 1-8-8V32a8 8 0 0 1 8-8h16.1zm51.4-9.3l.5-.7 1.5-1.5a4 4 0 0 1 5.4-.2 49.9 49.9 0 0 1 0 75.3 4 4 0 0 1-5.4-.2A75 75 0 0 1 76 86a4 4 0 0 1 .2-5.8 40 40 0 0 0 9-11.1V69l.1-.2a39.3 39.3 0 0 0 4.4-14v-.3L90 50c0-10.6-4.1-20.2-10.8-27.3l-.1-.2a44 44 0 0 0-1-1H78l-.1-.2a35 35 0 0 0-2-1.8 4 4 0 0 1-.6-.8v-.3a4 4 0 0 1 .1-3.6v-.1zM62.2 27.8l1-1a4 4 0 0 1 5.4-.4l2.5 2.2a30 30 0 0 1-2.7 45v.1a4 4 0 0 1-2.2.7c-1.1 0-2.1-.4-3-1.1l-.9-1-.5-.5a4 4 0 0 1-.6-.8l-.1-.2a4 4 0 0 1 1-5A20 20 0 0 0 70 50a20 20 0 0 0-7.8-15.8A4 4 0 0 1 62 28l.2-.2z"></path></svg>
