<svg viewBox="0 0 100 100" xmlns="http://www.w3.org/2000/svg" fill-rule="evenodd" clip-rule="evenodd" stroke-linejoin="round" stroke-miterlimit="1.4" class="UnMuteVideoButton-icon"><path d="M24.1 24L45.2 1.3a3.7 3.7 0 0 1 4.4-1C51 1.2 52 2.8 52 4.6v91c0 1.8-1 3.4-2.4 4.1-1.5.7-3.2.4-4.4-.9L24.2 76H8a8 8 0 0 1-8-8V32a8 8 0 0 1 8-8h16.1zM80 42.7l11.5-11.4a4.4 4.4 0 0 1 6.1 0l1.1 1a4.4 4.4 0 0 1 0 6.2L87.3 50l11.4 11.5a4.4 4.4 0 0 1 0 6.1l-1 1.1a4.4 4.4 0 0 1-6.2 0L80 57.3 68.5 68.7a4.4 4.4 0 0 1-6.1 0l-1.1-1a4.4 4.4 0 0 1 0-6.2L72.7 50 61.3 38.5a4.4 4.4 0 0 1 0-6.1l1-1.1a4.4 4.4 0 0 1 6.2 0L80 42.7z"></path></svg>
