<svg xmlns="http://www.w3.org/2000/svg" viewBox="0 0 500 500"><style>.st1{fill:#fff}</style><path d="M296 405.7h-69.7c-2 4.8-3.5 9.7-5.8 14.1-3 6-7.5 10.7-14.6 11.9-5.7.9-10.7-1.1-15.3-4.1-8-5.1-14-12.3-19.6-19.8-1.2-1.6-2.3-2.2-4.3-2.2-17.8.1-35.5.1-53.3.1-9.6 0-13.7-4.1-13.7-13.9V276.1c-9.3 0-17.9-1.9-26.2-5.5-12.2-5.3-21.8-13.2-26.7-26-3.9-9.9-2.6-19.8.4-29.6.2-.8.5-1.6.6-1.8-4.7-4.3-9.6-8-13.5-12.6-10.4-12.4-13.7-26.6-9.9-42.4 3.3-13.4 9.3-25.5 19.1-35.2 13.1-12.9 29.6-16.9 47.5-15.4 21 1.8 40.3 9 58.9 18.4 1.6.8 3.3 1.4 4.7 2.5 3.2 2.6 6.3 1.4 9.3-.1.8-.4 1.4-1.6 1.8-2.6 5.2-13.3 11.4-26.2 19.2-38.2 7.3-11.1 15.5-21.4 26.5-29 16.6-11.5 34.5-13.8 53.5-6.7 8.8 3.3 17.2 7.3 24.1 13.7 14.8 13.7 18.8 30.5 14.1 49.8-.3 1.3-.6 2.5-.9 3.8 11.6 6.5 20.1 15.3 23.2 28.7 3 13.3-1.3 25-7.3 36.7h91.6c8.9 0 13.3 4.3 13.3 13.2v194.7c0 8.9-4.4 13.2-13.3 13.2h-53.9c-1.9 0-3 .6-4.1 2.1-5.6 7.5-11.6 14.7-19.6 19.8-4.7 3-9.7 5.1-15.5 4.2-7.3-1.2-11.7-6.1-14.7-12.2-2.5-4.5-4.1-9.2-5.9-13.9z" fill="none" stroke="#fff" stroke-width="20" stroke-linecap="round" stroke-linejoin="round" stroke-miterlimit="10" id="レイヤー_2"/><g id="レイヤー_1"><path class="st1" d="M385.5 379.8H137.8c-8.3 0-12.5-4.2-12.5-12.4V263.3c0-1.6.9-3 2.3-3.6 16.4-7.4 31.8-18 49.8-34.2 1.7-1.6 4-2.8 6.4-3.3 7.4-1.9 15.4-4.1 22.7-8h.1c1.9-1 4-1.2 5.4-1.1 17.6.5 31-.3 43.6-2.5 1.1-.2 2.2-.2 3.1-.2h126.6c8.9 0 12.9 4 12.9 12.9V367c0 8.9-3.9 12.8-12.7 12.8zM133.3 265.9v101.5c0 3.8.6 4.4 4.5 4.4h247.7c4.2 0 4.7-.5 4.7-4.8V223.1c0-4.4-.5-4.9-4.9-4.9H257c-13.2 2.3-27.1 3.2-45.2 2.7-.8 0-1.4.2-1.6.3-8.1 4.3-16.9 6.8-24.5 8.7-1.1.3-2.2.8-2.9 1.5-17.8 16-33.2 26.7-49.5 34.5zm88.3-62.5c-1.9 0-3.6-1.4-3.9-3.3-4-21.5-13.3-40.6-22.8-57.9-1.8-3.3-4-6.6-7.6-8.3-2-.9-2.9-3.2-2-5.2 6.7-16.2 13.5-28.6 21.5-38.9 5.3-6.8 10.7-12 16.5-16 10.2-6.8 20.9-8.4 31.9-4.6 5.5 1.9 9.6 3.7 13.2 5.7 14.9 8.3 20 20.7 15.2 37-1 3.7-2.7 7.7-5 12-.7 1.3-1.4 3.3-.7 5.1.7 1.8 2.7 2.9 4.3 3.4 6.4 2.3 11.2 4.6 15.4 7.3 7.9 5.3 10.7 13.6 7.9 23.4-3.7 13.1-11.8 22.8-23.9 28.8-9.7 4.8-20.3 7.8-32.4 9.2-6.4.8-12.9 1.2-19.1 1.6-2.7.2-5.5.4-8.2.6-.1.1-.2.1-.3.1zM194 128.6c3.5 2.6 5.8 6.1 7.9 9.7 9.3 17 18.5 35.6 22.9 56.8 1.6-.1 3.2-.2 4.7-.3 6.2-.4 12.5-.8 18.7-1.6 11.2-1.2 21-4 29.8-8.4 10.2-5 16.6-12.8 19.7-23.8 1.8-6.4.2-11.3-4.7-14.6-3.5-2.3-8-4.4-13.6-6.5-4.5-1.6-7.6-4.4-9-8s-1.1-7.6 1-11.7c2.1-3.9 3.5-7.4 4.4-10.6 3.7-12.6.1-21.4-11.4-27.8-3.2-1.8-6.9-3.4-12-5.1-8.6-3-16.7-1.8-24.8 3.6-5.2 3.6-9.9 8.1-14.7 14.3-6.8 9.3-12.9 20.1-18.9 34zM99 256.4c-8.4 0-16.4-2.3-23.9-6.9-10.3-6.4-13.7-14.9-10.3-26.2 1.2-4 3.2-8.1 6.3-13.2.9-1.5 1.9-3.6 1.3-5.4-.6-1.8-2.6-3-4.2-3.7-6.2-2.8-11.2-5.7-15.3-8.9-9.5-7.5-12.9-17.9-9.9-29.9 1.9-7.8 5.7-15.2 11-22.2 6.3-8.2 15.5-12.5 28.1-13.1 8.3-.4 16.7.7 25.7 3.5 5.8 1.7 11.9 3.9 19.3 6.8 3.8 1.4 7.3 3 10.9 4.8 1.2.6 2.4 1.2 3.7 1.7 1.1.5 1.9 1.5 2.2 2.6.3 1.2.1 2.4-.6 3.4-2.5 3.4-1.8 7.1-1.1 11.3v.2c2.9 17.7 7.1 33.2 12.7 47.2 1.2 2.9 2.7 5.7 4.3 8.7.8 1.5 1.7 3.1 2.5 4.8.9 1.7.4 3.8-1.1 5-.7.5-1.4 1.1-2.2 1.8-.9.7-1.9 1.5-2.9 2.3-14.4 11-26.3 17.9-38.8 22.4-6.1 1.9-12 3-17.7 3zM85.4 134.7c-.9 0-1.9 0-2.8.1-10.2.5-17.3 3.7-22.1 10-4.7 6.1-7.9 12.5-9.6 19.2-2.3 9 .1 16.1 7.1 21.7 3.5 2.8 7.9 5.4 13.6 7.9 5.6 2.5 7.7 6.1 8.5 8.7.8 2.6 1.1 6.8-2.2 12-2.8 4.5-4.5 8-5.5 11.3-2.3 7.7-.3 12.6 6.9 17 10.6 6.5 22 7.5 34.8 2.9 11.7-4.2 23-10.7 36.6-21.2.8-.7 1.7-1.3 2.5-2-.3-.6-.6-1.2-.9-1.7-1.7-3.2-3.3-6.2-4.7-9.5-5.8-14.6-10.1-30.6-13.1-48.9v-.1c-.7-3.9-1.4-8.5.3-13.2-3.5-1.7-6.8-3.2-10.3-4.5h-.1c-7.1-2.8-13-4.9-18.7-6.6-7.2-2-13.8-3.1-20.3-3.1zm87.5 79c-2.8 0-5.5-2.2-6.4-4.5l-1-2.5c-2.5-6.4-5.1-12.9-7.1-19.7-2.1-7-3.6-14-5.3-21.3-.5-2.1-.9-4.1-1.4-6.2-.3-1.3 0-2.6.9-3.5.1-.2.3-.3.4-.5.6-.9 1.5-2.2 3.2-2.8 7.3-2.8 14.9-5.6 22.4-8.1 2.6-.9 6.3.5 7.7 2.9 10.4 18.7 16.8 33.7 20.6 48.8.9 3.6-.3 6.4-3.5 8.3-8.3 4.8-17.8 7.7-29.9 9.2-.2-.1-.4-.1-.6-.1zM160 159.8c.3 1.4.6 2.8 1 4.2 1.7 7.2 3.2 14 5.2 20.8 1.9 6.4 4.4 12.8 6.8 19l.7 1.8c10.2-1.3 18.3-3.8 25.3-7.8-3.6-14-9.5-28-19.1-45.3-6.6 2.3-13.4 4.8-19.9 7.3z"/><path class="st1" d="M320 305.1c-2.9 0-5.8-.5-8.5-1.6-11.7-4.6-17.4-16.7-13.9-29.5.6-2.5 1.6-4.8 2.6-7.2.1-.2.1-.3.2-.5-5.6-5.3-7.5-14.3-4.2-21.5 0 0 0-.1.1-.1.6-1.3 1.6-2.1 2.3-2.7.2-.1.3-.3.5-.4.9-.9 2.1-1.3 3.3-1.1 1.2.1 2.3.8 2.9 1.9.1.2.2.3.3.5.6.8 1.4 2 1.6 3.6.7 4.9 1.9 7.1 4.4 8.4.1 0 .2.1.3.1 5.1-2.1 10.6-1.9 16.3.5 7.1 3 12.6 9.1 15.2 16.8 2.4 7 1.9 14.4-1.4 20.3-4.5 7.7-13.2 12.5-22 12.5zm-13.9-44.3l1.2.9c1.6 1 2.3 3.1 1.6 4.8-.5 1.2-.9 2.3-1.4 3.4-.9 2.2-1.8 4.2-2.3 6.1v.1c-2.4 8.6 1.3 16.8 9.1 19.9 7.4 2.9 16.7-.6 20.6-7.6 2.2-3.9 2.5-8.9.8-13.8-1.9-5.4-5.9-9.9-10.8-12-3.9-1.6-7.2-1.7-10.4-.3-.1 0-.2.1-.3.1-2.1.7-4.5.2-6-.4 0 0-.1 0-.1-.1-.7-.3-1.4-.7-2-1.1zm-102.8 44.3c-2.3 0-4.6-.3-6.9-1-6.6-1.9-11.9-6-15-11.7-3-5.5-3.7-12.1-1.8-18.4v-.1c.9-2.8 2.3-5.4 3.6-7.9.2-.4.5-.9.7-1.3-3.6-4.6-4.6-10.7-2.8-18.2v-.1c.5-1.9 1.8-3.1 2.6-3.9l.5-.5c.9-1 2.2-1.5 3.5-1.3s2.5 1 3.1 2.2c.1.2.3.4.4.7.5.8 1.2 1.9 1.5 3.4.7 4.6 1.7 6.5 3.8 7.6.2.1.5.1.6.1 9-2.8 16.8-.5 22.4 6.7 6.9 8.8 8.9 17.9 6.2 27.1-3 10.1-12.2 16.6-22.4 16.6zm-16.1-28.7c-1.2 4.3-.8 8.6 1.2 12.2 2.1 3.8 5.7 6.6 10.2 7.8 8.5 2.4 17-2.1 19.5-10.3 2-6.7.4-13.2-4.8-19.9-3.6-4.5-8-5.8-13.8-3.9-2 .6-4.5.3-6.5-.6 0 0-.1 0-.1-.1-.9-.5-1.8-1.1-2.5-1.7.3.4.7.8 1.1 1.1 1.3 1.2 1.7 3.1.9 4.7-.7 1.4-1.4 2.7-2 4-1.3 2.4-2.5 4.6-3.2 6.7zm58.3 58.5c-1.9 0-4.3-.2-6-2.1s-1.7-4.3-1.5-6v-.1c1.2-9.2 4.9-16.8 10.9-22.4 4.2-3.9 9.5-4.9 14.5-2.6 9.5 4.2 16.7 11.3 21.4 21.2 1.4 3.2 1.4 5.8.1 8-1.3 2.1-3.7 3.3-7.1 3.4-.9.2-1.8.1-2.6.1H274c-.9-.1-1.9-.2-2.9-.3-2-.2-4-.4-6-.4-5.3.1-10.5.5-16 .9h-.3c-.2 0-.4.1-.6.1-.9.1-1.7.2-2.7.2zm12.6-26.5c-1 0-2.3.4-3.6 1.7-4.5 4.2-7.3 9.7-8.3 16.7.2 0 .5-.1.8-.1s.7-.1 1-.1h.6c5.4-.4 10.9-.8 16.5-.9 2.4 0 4.8.2 6.9.5.9.1 1.8.2 2.6.2h2.1c.3-.1.5-.1.8-.1h.4v-.1c-3.7-8-9.6-13.9-17.4-17.3-.9-.2-1.6-.5-2.4-.5z"/><path d="M296 405.7h-69.7c-2 4.8-3.5 9.7-5.8 14.1-3 6-7.5 10.7-14.6 11.9-5.7.9-10.7-1.1-15.3-4.1-8-5.1-14-12.3-19.6-19.8-1.2-1.6-2.3-2.2-4.3-2.2-17.8.1-35.5.1-53.3.1-9.6 0-13.7-4.1-13.7-13.9V276.1c-9.3 0-17.9-1.9-26.2-5.5-12.2-5.3-21.8-13.2-26.7-26-3.9-9.9-2.6-19.8.4-29.6.2-.8.5-1.6.6-1.8-4.7-4.3-9.6-8-13.5-12.6-10.4-12.4-13.7-26.6-9.9-42.4 3.3-13.4 9.3-25.5 19.1-35.2 13.1-12.9 29.6-16.9 47.5-15.4 21 1.8 40.3 9 58.9 18.4 1.6.8 3.3 1.4 4.7 2.5 3.2 2.6 6.3 1.4 9.3-.1.8-.4 1.4-1.6 1.8-2.6 5.2-13.3 11.4-26.2 19.2-38.2 7.3-11.1 15.5-21.4 26.5-29 16.6-11.5 34.5-13.8 53.5-6.7 8.8 3.3 17.2 7.3 24.1 13.7 14.8 13.7 18.8 30.5 14.1 49.8-.3 1.3-.6 2.5-.9 3.8 11.6 6.5 20.1 15.3 23.2 28.7 3 13.3-1.3 25-7.3 36.7h91.6c8.9 0 13.3 4.3 13.3 13.2v194.7c0 8.9-4.4 13.2-13.3 13.2h-53.9c-1.9 0-3 .6-4.1 2.1-5.6 7.5-11.6 14.7-19.6 19.8-4.7 3-9.7 5.1-15.5 4.2-7.3-1.2-11.7-6.1-14.7-12.2-2.5-4.5-4.1-9.2-5.9-13.9zM129.3 263.3v104.1c0 6.1 2.4 8.4 8.5 8.4h247.7c6.5 0 8.7-2.2 8.7-8.8V223.1c0-6.7-2.2-8.9-8.9-8.9H259.4c-1 0-2.1-.1-3.1.1-14.7 2.6-29.5 3-44.4 2.6-1.2 0-2.5.1-3.5.7-7.5 3.9-15.5 6.3-23.7 8.4-1.6.4-3.3 1.3-4.6 2.4-15.4 13.8-31.7 26.2-50.8 34.9zm59.7-133c4.7 2.2 7.2 6.1 9.5 10.2 10.2 18.5 19.2 37.5 23.2 59.1 9-.7 18.1-1.2 27.2-2.2 10.8-1.3 21.3-4 31.1-8.8 11.2-5.6 18.5-14.3 21.8-26.3 2.2-7.8.4-14.5-6.3-19-4.4-3-9.5-5.1-14.5-6.9-6.7-2.4-9.1-7.8-5.8-14.1 1.9-3.6 3.6-7.4 4.7-11.3 4.2-14.3-.3-25.1-13.3-32.4-4-2.2-8.3-3.9-12.6-5.4-10.1-3.5-19.5-1.8-28.3 4.1-6.1 4.1-11.2 9.3-15.6 15.2-9 11.3-15.5 24.2-21.1 37.8zm-48.9 16.9c-5-2.3-9.6-4.6-14.3-6.4-6.3-2.4-12.6-4.7-19-6.7-7.9-2.4-16-3.8-24.3-3.3-9.9.5-18.8 3.4-25.1 11.6-4.8 6.2-8.4 13-10.3 20.7-2.6 10.4.2 19.2 8.5 25.8 4.3 3.4 9.4 6.1 14.4 8.4 6.8 3.1 8.6 8.5 4.6 14.9-2.4 3.9-4.5 8-5.9 12.3-3 9.6 0 16.3 8.6 21.6 12.2 7.6 25 8 38.2 3.3 13.9-4.9 26-12.9 37.7-21.8 1.9-1.4 3.7-3 5.1-4.1-2.5-4.9-5.2-9.2-7-13.8-6.2-15.5-10.2-31.6-12.9-48-.8-4.8-1.7-9.7 1.7-14.5zm15.5 11.4c2.3 9.4 4.1 18.4 6.7 27.3 2.2 7.4 5.1 14.6 7.9 21.8.4.9 1.9 2.1 2.8 2 10-1.2 19.6-3.6 28.4-8.7 1.6-.9 2.1-1.9 1.6-3.8-4.3-16.9-11.7-32.6-20.2-47.8-.4-.7-2.1-1.3-2.9-1.1-7.5 2.6-14.9 5.3-22.3 8.1-.8.3-1.3 1.3-2 2.2z" fill="#010101"/><path d="M129.3 263.3c19.2-8.7 35.5-21.1 50.8-34.9 1.2-1.1 2.9-2 4.6-2.4 8.2-2.1 16.2-4.4 23.7-8.4 1-.5 2.3-.7 3.5-.7 14.9.4 29.7 0 44.4-2.6 1-.2 2.1-.1 3.1-.1h125.9c6.7 0 8.9 2.2 8.9 8.9V367c0 6.6-2.2 8.8-8.7 8.8H137.8c-6.1 0-8.5-2.3-8.5-8.4V263.3z" fill="#fefefe"/><path d="M189 130.3c5.6-13.6 12.1-26.5 21-38 4.5-5.8 9.5-11 15.6-15.2 8.8-5.9 18.2-7.6 28.3-4.1 4.3 1.5 8.6 3.2 12.6 5.4 13.1 7.3 17.5 18 13.3 32.4-1.1 3.9-2.8 7.7-4.7 11.3-3.2 6.3-.9 11.7 5.8 14.1 5 1.8 10.1 4 14.5 6.9 6.7 4.5 8.5 11.3 6.3 19-3.4 12-10.6 20.8-21.8 26.3-9.8 4.9-20.3 7.6-31.1 8.8-9.1 1.1-18.2 1.5-27.2 2.2-4-21.6-13.1-40.6-23.2-59.1-2.2-3.9-4.8-7.9-9.4-10zm-48.9 16.9c-3.5 4.8-2.6 9.8-1.8 14.5 2.7 16.4 6.7 32.5 12.9 48 1.9 4.6 4.5 8.9 7 13.8-1.4 1.1-3.2 2.6-5.1 4.1-11.6 8.9-23.8 16.8-37.7 21.8-13.2 4.7-26 4.2-38.2-3.3-8.6-5.3-11.5-12-8.6-21.6 1.3-4.3 3.5-8.4 5.9-12.3 4-6.4 2.2-11.9-4.6-14.9-5.1-2.3-10.1-5-14.4-8.4-8.3-6.6-11.1-15.4-8.5-25.8 1.9-7.6 5.5-14.5 10.3-20.7 6.3-8.2 15.2-11.1 25.1-11.6 8.3-.4 16.4.9 24.3 3.3 6.4 1.9 12.7 4.2 19 6.7 4.9 1.8 9.4 4.1 14.4 6.4z" fill="#f0476e"/><path d="M155.6 158.6c.7-.8 1.2-1.9 2-2.2 7.4-2.8 14.8-5.6 22.3-8.1.8-.3 2.5.4 2.9 1.1 8.5 15.2 15.9 30.8 20.2 47.8.5 1.9 0 2.9-1.6 3.8-8.8 5.1-18.4 7.5-28.4 8.7-.9.1-2.4-1-2.8-2-2.8-7.2-5.7-14.4-7.9-21.8-2.6-8.9-4.5-17.9-6.7-27.3z" fill="#f0466e"/><path d="M305.2 265.1c-5.8-3.6-8.4-12-5.4-18.5.4-.8 1.3-1.4 2-2.1.5.8 1.3 1.6 1.4 2.4.7 4.8 2 9.2 6.7 11.5.9.4 2.2.6 3.1.3 4.6-2 9.1-1.6 13.6.3 12 5.1 17.9 20.7 11.9 31.4-5 8.9-16.3 13-25.6 9.4-9.6-3.8-14.5-13.9-11.5-24.7.8-3.2 2.4-6.4 3.8-10zM188.7 264c-4.8-4.3-5.2-10.3-3.7-16.6.3-1.1 1.5-1.9 2.3-2.8.5 1 1.3 1.9 1.5 3 .7 4.3 1.8 8.3 5.9 10.5 1 .5 2.5.7 3.5.4 7.3-2.3 13.5-.7 18.2 5.3 5.4 6.9 8.1 14.8 5.5 23.5-3.1 10.5-13.9 16-24.4 13-11.2-3.2-17.4-13.9-14.1-25.1 1.2-3.7 3.4-7.2 5.3-11.2zm85.5 66.4c-2.7-.2-6-.7-9.2-.7-5.6.1-11.1.5-16.7.9-.9.1-1.8.3-2.8.3-2.9 0-3.8-.8-3.5-3.7 1-7.7 3.9-14.6 9.7-20 2.9-2.7 6.4-3.6 10.1-1.9 8.9 3.9 15.3 10.5 19.4 19.3 1.7 3.8.3 5.6-3.9 5.7-.8.2-1.7.1-3.1.1z" fill="#020202"/></g></svg>