<svg xmlns="http://www.w3.org/2000/svg" xmlns:xlink="http://www.w3.org/1999/xlink" x="0px"
	 y="0px" viewBox="0 0 500 500" style="enable-background:new 0 0 500 500;" xml:space="preserve">
<style type="text/css">
	.st0{fill:#010101;}
	.st1{fill:#FEFEFE;}
	.st2{fill:#F0476E;}
	.st3{fill:#F0466E;}
	.st4{fill:#020202;}
</style>
<g>
    <path class="st0" d="M296,405.7c-23.2,0-46.7,0-69.7,0c-2,4.8-3.5,9.7-5.8,14.1c-3,6-7.5,10.7-14.6,11.9
        c-5.7,0.9-10.7-1.1-15.3-4.1c-8-5.1-14-12.3-19.6-19.8c-1.2-1.6-2.3-2.2-4.3-2.2c-17.8,0.1-35.5,0.1-53.3,0.1
        c-9.6,0-13.7-4.1-13.7-13.9c0-37.5,0-75,0-112.5c0-1,0-2,0-3.2c-9.3,0-17.9-1.9-26.2-5.5c-12.2-5.3-21.8-13.2-26.7-26
        c-3.9-9.9-2.6-19.8,0.4-29.6c0.2-0.8,0.5-1.6,0.6-1.8c-4.7-4.3-9.6-8-13.5-12.6c-10.4-12.4-13.7-26.6-9.9-42.4
        c3.3-13.4,9.3-25.5,19.1-35.2c13.1-12.9,29.6-16.9,47.5-15.4c21,1.8,40.3,9,58.9,18.4c1.6,0.8,3.3,1.4,4.7,2.5
        c3.2,2.6,6.3,1.4,9.3-0.1c0.8-0.4,1.4-1.6,1.8-2.6c5.2-13.3,11.4-26.2,19.2-38.2c7.3-11.1,15.5-21.4,26.5-29
        c16.6-11.5,34.5-13.8,53.5-6.7c8.8,3.3,17.2,7.3,24.1,13.7c14.8,13.7,18.8,30.5,14.1,49.8c-0.3,1.3-0.6,2.5-0.9,3.8
        c11.6,6.5,20.1,15.3,23.2,28.7c3,13.3-1.3,25-7.3,36.7c1.2,0,2.2,0,3.2,0c29.5,0,58.9,0,88.4,0c8.9,0,13.3,4.3,13.3,13.2
        c0,64.9,0,129.8,0,194.7c0,8.9-4.4,13.2-13.3,13.2c-18,0-35.9,0-53.9,0c-1.9,0-3,0.6-4.1,2.1c-5.6,7.5-11.6,14.7-19.6,19.8
        c-4.7,3-9.7,5.1-15.5,4.2c-7.3-1.2-11.7-6.1-14.7-12.2C299.4,415.1,297.8,410.4,296,405.7z M129.3,263.3c0,0.9,0,1.8,0,2.6
        c0,33.8,0,67.7,0,101.5c0,6.1,2.4,8.4,8.5,8.4c82.6,0,165.1,0,247.7,0c6.5,0,8.7-2.2,8.7-8.8c0-48,0-95.9,0-143.9
        c0-6.7-2.2-8.9-8.9-8.9c-42,0-84,0-125.9,0c-1,0-2.1-0.1-3.1,0.1c-14.7,2.6-29.5,3-44.4,2.6c-1.2,0-2.5,0.1-3.5,0.7
        c-7.5,3.9-15.5,6.3-23.7,8.4c-1.6,0.4-3.3,1.3-4.6,2.4C164.7,242.2,148.4,254.6,129.3,263.3z M189,130.3c4.7,2.2,7.2,6.1,9.5,10.2
        c10.2,18.5,19.2,37.5,23.2,59.1c9-0.7,18.1-1.2,27.2-2.2c10.8-1.3,21.3-4,31.1-8.8c11.2-5.6,18.5-14.3,21.8-26.3
        c2.2-7.8,0.4-14.5-6.3-19c-4.4-3-9.5-5.1-14.5-6.9c-6.7-2.4-9.1-7.8-5.8-14.1c1.9-3.6,3.6-7.4,4.7-11.3
        c4.2-14.3-0.3-25.1-13.3-32.4c-4-2.2-8.3-3.9-12.6-5.4c-10.1-3.5-19.5-1.8-28.3,4.1c-6.1,4.1-11.2,9.3-15.6,15.2
        C201.1,103.8,194.6,116.7,189,130.3z M140.1,147.2c-5-2.3-9.6-4.6-14.3-6.4c-6.3-2.4-12.6-4.7-19-6.7c-7.9-2.4-16-3.8-24.3-3.3
        c-9.9,0.5-18.8,3.4-25.1,11.6c-4.8,6.2-8.4,13-10.3,20.7c-2.6,10.4,0.2,19.2,8.5,25.8c4.3,3.4,9.4,6.1,14.4,8.4
        c6.8,3.1,8.6,8.5,4.6,14.9c-2.4,3.9-4.5,8-5.9,12.3c-3,9.6,0,16.3,8.6,21.6c12.2,7.6,25,8,38.2,3.3c13.9-4.9,26-12.9,37.7-21.8
        c1.9-1.4,3.7-3,5.1-4.1c-2.5-4.9-5.2-9.2-7-13.8c-6.2-15.5-10.2-31.6-12.9-48C137.6,156.9,136.7,152,140.1,147.2z M155.6,158.6
        c2.3,9.4,4.1,18.4,6.7,27.3c2.2,7.4,5.1,14.6,7.9,21.8c0.4,0.9,1.9,2.1,2.8,2c10-1.2,19.6-3.6,28.4-8.7c1.6-0.9,2.1-1.9,1.6-3.8
        c-4.3-16.9-11.7-32.6-20.2-47.8c-0.4-0.7-2.1-1.3-2.9-1.1c-7.5,2.6-14.9,5.3-22.3,8.1C156.8,156.7,156.3,157.7,155.6,158.6z"/>
    <path class="st1" d="M129.3,263.3c19.2-8.7,35.5-21.1,50.8-34.9c1.2-1.1,2.9-2,4.6-2.4c8.2-2.1,16.2-4.4,23.7-8.4
        c1-0.5,2.3-0.7,3.5-0.7c14.9,0.4,29.7,0,44.4-2.6c1-0.2,2.1-0.1,3.1-0.1c42,0,84,0,125.9,0c6.7,0,8.9,2.2,8.9,8.9
        c0,48,0,95.9,0,143.9c0,6.6-2.2,8.8-8.7,8.8c-82.6,0-165.1,0-247.7,0c-6.1,0-8.5-2.3-8.5-8.4c0-33.8,0-67.7,0-101.5
        C129.3,265.1,129.3,264.2,129.3,263.3z"/>
    <path class="st2" d="M189,130.3c5.6-13.6,12.1-26.5,21-38c4.5-5.8,9.5-11,15.6-15.2c8.8-5.9,18.2-7.6,28.3-4.1
        c4.3,1.5,8.6,3.2,12.6,5.4c13.1,7.3,17.5,18,13.3,32.4c-1.1,3.9-2.8,7.7-4.7,11.3c-3.2,6.3-0.9,11.7,5.8,14.1
        c5,1.8,10.1,4,14.5,6.9c6.7,4.5,8.5,11.3,6.3,19c-3.4,12-10.6,20.8-21.8,26.3c-9.8,4.9-20.3,7.6-31.1,8.8
        c-9.1,1.1-18.2,1.5-27.2,2.2c-4-21.6-13.1-40.6-23.2-59.1C196.2,136.4,193.6,132.4,189,130.3z"/>
    <path class="st2" d="M140.1,147.2c-3.5,4.8-2.6,9.8-1.8,14.5c2.7,16.4,6.7,32.5,12.9,48c1.9,4.6,4.5,8.9,7,13.8
        c-1.4,1.1-3.2,2.6-5.1,4.1c-11.6,8.9-23.8,16.8-37.7,21.8c-13.2,4.7-26,4.2-38.2-3.3c-8.6-5.3-11.5-12-8.6-21.6
        c1.3-4.3,3.5-8.4,5.9-12.3c4-6.4,2.2-11.9-4.6-14.9c-5.1-2.3-10.1-5-14.4-8.4c-8.3-6.6-11.1-15.4-8.5-25.8
        c1.9-7.6,5.5-14.5,10.3-20.7c6.3-8.2,15.2-11.1,25.1-11.6c8.3-0.4,16.4,0.9,24.3,3.3c6.4,1.9,12.7,4.2,19,6.7
        C130.6,142.6,135.1,144.9,140.1,147.2z"/>
    <path class="st3" d="M155.6,158.6c0.7-0.8,1.2-1.9,2-2.2c7.4-2.8,14.8-5.6,22.3-8.1c0.8-0.3,2.5,0.4,2.9,1.1
        c8.5,15.2,15.9,30.8,20.2,47.8c0.5,1.9,0,2.9-1.6,3.8c-8.8,5.1-18.4,7.5-28.4,8.7c-0.9,0.1-2.4-1-2.8-2
        c-2.8-7.2-5.7-14.4-7.9-21.8C159.7,177,157.8,168,155.6,158.6z"/>
    <path class="st4" d="M305.2,265.1c-5.8-3.6-8.4-12-5.4-18.5c0.4-0.8,1.3-1.4,2-2.1c0.5,0.8,1.3,1.6,1.4,2.4
        c0.7,4.8,2,9.2,6.7,11.5c0.9,0.4,2.2,0.6,3.1,0.3c4.6-2,9.1-1.6,13.6,0.3c12,5.1,17.9,20.7,11.9,31.4c-5,8.9-16.3,13-25.6,9.4
        c-9.6-3.8-14.5-13.9-11.5-24.7C302.2,271.9,303.8,268.7,305.2,265.1z"/>
    <path class="st4" d="M188.7,264c-4.8-4.3-5.2-10.3-3.7-16.6c0.3-1.1,1.5-1.9,2.3-2.8c0.5,1,1.3,1.9,1.5,3
        c0.7,4.3,1.8,8.3,5.9,10.5c1,0.5,2.5,0.7,3.5,0.4c7.3-2.3,13.5-0.7,18.2,5.3c5.4,6.9,8.1,14.8,5.5,23.5c-3.1,10.5-13.9,16-24.4,13
        c-11.2-3.2-17.4-13.9-14.1-25.1C184.6,271.5,186.8,268,188.7,264z"/>
    <path class="st4" d="M274.2,330.4c-2.7-0.2-6-0.7-9.2-0.7c-5.6,0.1-11.1,0.5-16.7,0.9c-0.9,0.1-1.8,0.3-2.8,0.3
        c-2.9,0-3.8-0.8-3.5-3.7c1-7.7,3.9-14.6,9.7-20c2.9-2.7,6.4-3.6,10.1-1.9c8.9,3.9,15.3,10.5,19.4,19.3c1.7,3.8,0.3,5.6-3.9,5.7
        C276.5,330.5,275.6,330.4,274.2,330.4z"/>
</g>
</svg>
